<?xml version="1.0" encoding="utf-8"?>
<!-- Svg Vector Icons : http://www.onlinewebfonts.com/icon -->
<!DOCTYPE svg PUBLIC "-//W3C//DTD SVG 1.1//EN" "http://www.w3.org/Graphics/SVG/1.1/DTD/svg11.dtd">
<svg version="1.1" xmlns="http://www.w3.org/2000/svg" xmlns:xlink="http://www.w3.org/1999/xlink" x="0px" y="0px" viewBox="0 0 1000 1000" enable-background="new 0 0 1000 1000" xml:space="preserve">
<metadata> Svg Vector Icons : http://www.onlinewebfonts.com/icon </metadata>
<g><path d="M519.2,128.5V19.7c0-3.5-1.8-6.8-4.8-8.5c-3.1-1.7-6.6-1.7-9.7,0l-251,146.9c-2.9,1.7-4.8,5.1-4.8,8.5c0,3.5,1.8,6.8,4.8,8.5l251,147.1c1.5,0.9,3.2,1.2,4.8,1.2c1.7,0,3.4-0.5,4.8-1.2c2.9-1.7,4.8-5.1,4.8-8.5V207c182.9,10.2,328.7,163.7,328.7,351.7c0,194.6-155.9,352.8-347.6,352.8S152.3,753.4,152.3,558.7H75.1c0,237.9,190.6,431.3,425,431.3c234.3,0,424.8-193.4,424.8-431.3C924.9,327.5,744.6,138.8,519.2,128.5L519.2,128.5z M402.1,401.6v261.6h261.6v-65.4H467.3V401.6L402.1,401.6L402.1,401.6z"/></g>
</svg>