<?xml version="1.0" encoding="utf-8"?>
<!-- Svg Vector Icons : http://www.onlinewebfonts.com/icon -->
<!DOCTYPE svg PUBLIC "-//W3C//DTD SVG 1.1//EN" "http://www.w3.org/Graphics/SVG/1.1/DTD/svg11.dtd">
<svg version="1.1" xmlns="http://www.w3.org/2000/svg" xmlns:xlink="http://www.w3.org/1999/xlink" x="0px" y="0px" viewBox="0 0 1000 1000" enable-background="new 0 0 1000 1000" xml:space="preserve">
<metadata> Svg Vector Icons : http://www.onlinewebfonts.com/icon </metadata>
<g><g transform="translate(0.000000,511.000000) scale(0.100000,-0.100000)"><path d="M2378.4,3775.9c-863.8-98.3-1627.3-636.6-2020.3-1422.6c-96.2-192.4-192.4-491.3-231.3-706.2c-43-241.5-32.8-685.7,20.5-941.6c110.5-522,376.6-1033.7,831-1600.7c92.1-116.7,356.2-423.7,587.5-683.7c493.3-556.8,743-859.7,927.2-1123.8c75.7-106.4,143.3-198.6,151.5-202.7c24.6-16.4,49.1,10.2,184.2,202.7c71.6,102.3,200.6,270.2,286.6,376.6c86,104.4,171.9,210.8,190.4,235.4c32.7,45,28.7,51.2-192.4,319.3c-511.7,626.4-786,1154.5-921.1,1786.9c-53.2,251.8-63.4,806.5-18.4,1058.3c55.3,315.2,208.8,708.2,382.8,986.6c323.4,515.8,861.7,960,1436.9,1185.2l169.9,67.5l-108.5,69.6C3575.8,3687.9,2933.1,3839.3,2378.4,3775.9z"/><path d="M7043.2,3773.8c-358.2-40.9-771.7-186.3-1070.5-374.6c-120.8-77.8-137.1-94.2-102.3-106.4c476.9-167.8,827-382.8,1162.6-710.3c804.4-788.1,1056.2-2087.8,605.9-3146.1c-178.1-417.6-468.8-867.9-861.8-1336.6c-102.3-122.8-116.7-147.4-94.2-178.1c14.3-18.4,118.7-149.4,231.3-290.7c112.6-139.2,245.6-315.2,296.8-390.9c51.2-73.7,104.4-141.2,118.7-145.3c14.3-6.1,53.2,28.7,92.1,83.9c264.1,382.8,464.6,628.4,1076.7,1316.2C9393.1-500.1,9726.7,54.6,9863.9,760.8c43,221.1,49.1,669.3,10.2,886.3c-88,501.5-325.4,972.3-677.5,1338.7c-440.1,460.5-966.1,718.5-1606.8,790.1C7378.9,3798.4,7266.4,3798.4,7043.2,3773.8z"/><path d="M4744.6,3118.8c-1136-110.5-2069.4-974.3-2274.1-2106.3c-43-235.4-43-659.1,2-890.4c77.8-421.7,247.7-818.8,522-1232.2c200.6-305,409.4-562.9,869.9-1080.8c485.1-546.5,736.9-849.5,945.7-1140.1c96.2-133,182.2-241.5,190.4-241.5s81.9,94.1,165.8,208.8c241.5,341.8,366.4,491.3,978.4,1183.1C6924.5-1302.5,7237.7-835.8,7424-277c178.1,536.3,186.3,1117.6,22.5,1627.3C7078,2494.5,5946.1,3235.5,4744.6,3118.8z M5395.5,1718.7c286.6-98.3,538.3-315.2,679.6-585.4c96.2-184.2,135.1-341.8,135.1-560.8c0-348-106.4-603.8-350-851.5c-491.3-495.4-1228.1-495.4-1719.4,0c-241.5,243.6-348,503.5-348,847.4c0,208.8,38.9,378.7,122.8,546.5C4187.8,1655.3,4828.5,1917.3,5395.5,1718.7z"/></g></g>
</svg>